<svg id="Component_94_1" data-name="Component 94 – 1" xmlns="http://www.w3.org/2000/svg" xmlns:xlink="http://www.w3.org/1999/xlink" width="361.502" height="301.915" viewBox="0 0 361.502 301.915">
  <defs>
    <linearGradient id="linear-gradient" x1="0.5" x2="0.5" y2="1.386" gradientUnits="objectBoundingBox">
      <stop offset="0" stop-color="#8ccef8"/>
      <stop offset="1" stop-color="#4ba9e6"/>
    </linearGradient>
    <clipPath id="clip-path">
      <path id="Rectangle_943" data-name="Rectangle 943" d="M1.721,0h9.633a1.721,1.721,0,0,1,1.721,1.721V22.826a4.141,4.141,0,0,1-4.141,4.141H4.141A4.141,4.141,0,0,1,0,22.826V1.721A1.721,1.721,0,0,1,1.721,0Z" transform="translate(219.507 216.363)" fill="none"/>
    </clipPath>
    <linearGradient id="linear-gradient-2" x1="1" y1="0.5" x2="0" y2="0.5" gradientUnits="objectBoundingBox">
      <stop offset="0" stop-color="#fdda42"/>
      <stop offset="1" stop-color="#e5a003"/>
    </linearGradient>
    <clipPath id="clip-path-2">
      <path id="Rectangle_944" data-name="Rectangle 944" d="M1.721,0h9.633a1.721,1.721,0,0,1,1.721,1.721V22.826a4.141,4.141,0,0,1-4.141,4.141H4.141A4.141,4.141,0,0,1,0,22.826V1.721A1.721,1.721,0,0,1,1.721,0Z" transform="translate(277.333 203.312)" fill="none"/>
    </clipPath>
    <clipPath id="clip-path-3">
      <path id="Path_1043" data-name="Path 1043" d="M108.334,323.253s-2.4,15.044-1.458,16.6,16.519,5.707,27.079,3.2,23.2-8.22,23.2-8.22l-26.141-6.9-11.252,1.035S111.8,326.733,108.334,323.253Z" fill="none"/>
    </clipPath>
    <clipPath id="clip-path-4">
      <path id="Path_1052" data-name="Path 1052" d="M188.3,326.184a94.226,94.226,0,0,1,1.314,10.425c0,2.986-5.454,6.27-8.05,6.446s-55.7-12.2-58.557-12.441a38.747,38.747,0,0,1-5.324-.839s2.6-4.946,7.4-6.522,10.257.92,13.5,1.685,20.644,3.148,29.733,3A185.521,185.521,0,0,0,188.3,326.184Z" fill="none"/>
    </clipPath>
    <clipPath id="clip-path-5">
      <path id="Rectangle_945" data-name="Rectangle 945" d="M1.721,0h8.948A1.721,1.721,0,0,1,12.39,1.721V21.412A4.141,4.141,0,0,1,8.25,25.553H4.141A4.141,4.141,0,0,1,0,21.412V1.721A1.721,1.721,0,0,1,1.721,0Z" transform="translate(142.117 276.575)" fill="none"/>
    </clipPath>
    <clipPath id="clip-path-6">
      <path id="Rectangle_946" data-name="Rectangle 946" d="M1.721,0H10.3a1.721,1.721,0,0,1,1.721,1.721V20.654a4.141,4.141,0,0,1-4.141,4.141H4.141A4.141,4.141,0,0,1,0,20.654V1.721A1.721,1.721,0,0,1,1.721,0Z" transform="translate(233.795 293.382)" fill="none"/>
    </clipPath>
    <linearGradient id="linear-gradient-3" x1="0.5" y1="2.212" x2="0.5" y2="-1.892" xlink:href="#linear-gradient-2"/>
  </defs>
  <path id="Path_958" data-name="Path 958" d="M151.118,22.546c35.715,0,32.783,59.192,74.121,67.039s86.087-15.773,86.087,32.548c0,46.64,38.885,21.721,43.282,71.653s-25.7,128.076-25.7,128.076H20.115s23.6-32.582-12.2-63.518,7.517-55.338,0-74.118C-14.2,128.992,52.784,107.348,62.682,87.032,87.268,36.561,90.948,22.546,151.118,22.546Z" transform="translate(6.455 -22.546)" opacity="0.392" fill="url(#linear-gradient)"/>
  <g id="Group_2212" data-name="Group 2212" transform="translate(-28.811 10.825)">
    <path id="Path_922" data-name="Path 922" d="M414.31,227.585l-2.05,2.527-1.431-2.432,17.066-21.036a34.219,34.219,0,0,0-.659-10.713c-1.78-8.53-2.161-17.933,2.92-15.639,4.409,1.99,4.492,12.721,1.2,22.081l6.6-8.137a49.756,49.756,0,0,0,5.239-11.979c3.049-11.647,8.083-22.112,12.641-17.331s-4.44,22.63-16.67,32.015l-3.4,4.187c8.794-7,22.407-10.583,25.72-6.056,3.291,4.5-5.988,6.065-14.7,6.081a31.128,31.128,0,0,0-13.1,2.534l-16.044,19.777c13.957-11.037,35.451-16.678,40.692-9.515,5.223,7.138-9.5,9.622-23.327,9.649C424.571,223.617,417.7,226.009,414.31,227.585Z" transform="translate(-140 -26)" fill="#009e76"/>
    <g id="Group_2188" data-name="Group 2188" transform="translate(17 4)">
      <g id="Group_2185" data-name="Group 2185">
        <g id="Group_2184" data-name="Group 2184">
          <path id="Path_923" data-name="Path 923" d="M118.958,129.978a9.078,9.078,0,0,1,.972,7.428h0a13.3,13.3,0,0,1-4.321,6.425,13.167,13.167,0,0,1-2.226,1.469c-.323.171-.654.328-.99.469a13.308,13.308,0,0,1-3.951,1,24.538,24.538,0,0,1-14.65-3.157,10.609,10.609,0,0,1-3.967-3.458c-3.387-6.076-2.556-16.109-10.033-16.858s-17.08-4.463-15.513-16.177S50.6,81.622,50.6,81.622s15.333.316,23.439,13.532S84.8,105.044,95.688,105.9s17.218.033,20.749,17.708A19.164,19.164,0,0,0,118.958,129.978Z" fill="#009e76"/>
        </g>
      </g>
      <g id="Group_2187" data-name="Group 2187">
        <g id="Group_2186" data-name="Group 2186">
          <path id="Path_924" data-name="Path 924" d="M113.383,145.3c-.323.171-.654.328-.99.469-5.087-4.858-8.74-10.9-9.772-16.176-1.478-7.536-7.989-12.2-21.111-15.116C73.071,112.6,69.7,103.264,69.562,102.868a.512.512,0,0,1,.967-.339c.031.093,3.324,9.2,11.2,10.949,13.574,3.019,20.325,7.929,21.892,15.918.982,5.019,4.633,11.029,9.525,15.682Z" fill="#007665"/>
        </g>
      </g>
    </g>
    <g id="Group_2192" data-name="Group 2192" transform="translate(25 18)">
      <g id="Group_2189" data-name="Group 2189">
        <path id="Path_925" data-name="Path 925" d="M133.556,147.556,158.7,141.8l0-.08a33.321,33.321,0,0,0-.568-7.98c-1.714-8.87-6.619-31.008-13.6-35.367-8.78-5.481-23.75-4.984-24.314-16.152s-5.38-25.708-22.9-24.241S60.432,35.778,60.432,35.778,59.776,58.59,78.82,71.606,92.727,88.334,93.2,104.573,91.99,130.164,118,136.709A26.562,26.562,0,0,1,133.556,147.556Z" fill="#2bd184"/>
      </g>
      <g id="Group_2191" data-name="Group 2191">
        <g id="Group_2190" data-name="Group 2190">
          <path id="Path_926" data-name="Path 926" d="M105.489,84.39c3.487,20.4,10.288,30.788,22.047,33.7,7.385,1.831,16.049,7.7,22.607,15.309a56.755,56.755,0,0,1,6.31,8.919l1.548-.354a58.132,58.132,0,0,0-6.705-9.559c-6.856-7.957-15.6-13.86-23.394-15.79-11.092-2.749-17.542-12.768-20.913-32.484-2.168-12.679-15.8-18.372-16.376-18.608a.761.761,0,0,0-.575,1.41C90.174,66.987,103.466,72.552,105.489,84.39Z" fill="#009e76"/>
        </g>
      </g>
    </g>
    <g id="Group_2197" data-name="Group 2197" transform="translate(-113 -55)">
      <g id="Group_2194" data-name="Group 2194">
        <g id="Group_2193" data-name="Group 2193">
          <path id="Path_927" data-name="Path 927" d="M400.753,326.478a9.073,9.073,0,0,0-1.6,7.318h0a13.3,13.3,0,0,0,3.758,6.77A13.16,13.16,0,0,0,405,342.219c.308.2.624.383.946.552A13.337,13.337,0,0,0,409.8,344.1a24.526,24.526,0,0,0,14.866-1.9,10.591,10.591,0,0,0,4.247-3.107c3.892-5.766,3.919-15.833,11.433-15.943s17.4-2.992,16.834-14.8,15.8-24.239,15.8-24.239-15.3-.991-24.506,11.486-11.57,8.938-22.488,8.865-17.158-1.432-22.181,15.877A19.168,19.168,0,0,1,400.753,326.478Z" fill="#009e76"/>
        </g>
      </g>
      <g id="Group_2196" data-name="Group 2196">
        <g id="Group_2195" data-name="Group 2195">
          <path id="Path_928" data-name="Path 928" d="M405,342.219c.308.2.624.383.946.552,5.483-4.408,9.637-10.117,11.115-15.285,2.115-7.383,9-11.474,22.322-13.264,8.567-1.149,12.72-10.166,12.892-10.55a.512.512,0,0,0-.934-.419c-.039.09-4.1,8.882-12.1,9.955-13.781,1.852-20.926,6.169-23.167,14-1.407,4.917-5.556,10.594-10.826,14.814Z" fill="#007665"/>
        </g>
      </g>
    </g>
    <g id="Group_2201" data-name="Group 2201" transform="translate(-115 -42)">
      <g id="Group_2198" data-name="Group 2198">
        <path id="Path_929" data-name="Path 929" d="M398.208,331.255l-24.676-7.526,0-.081a33.331,33.331,0,0,1,1.134-7.919c2.341-8.726,8.809-30.458,16.086-34.31,9.147-4.842,24.044-3.281,25.4-14.381s7.2-25.26,24.57-22.55S479.1,224.963,479.1,224.963s-.969,22.8-20.891,34.428-15.061,15.7-16.69,31.861-.612,25.613-27.017,30.29A26.559,26.559,0,0,0,398.208,331.255Z" fill="#2bd184"/>
      </g>
      <g id="Group_2200" data-name="Group 2200">
        <g id="Group_2199" data-name="Group 2199">
          <path id="Path_930" data-name="Path 930" d="M430.7,270.246c-4.93,20.1-12.453,29.978-24.389,32.046-7.5,1.3-16.556,6.537-23.639,13.663a56.726,56.726,0,0,0-6.929,8.448l-1.518-.464a58.177,58.177,0,0,1,7.367-9.058c7.4-7.448,16.549-12.714,24.459-14.085,11.259-1.953,18.406-11.488,23.17-30.914,3.065-12.493,17.065-17.2,17.659-17.4a.761.761,0,0,1,.473,1.447C447.212,253.977,433.558,258.582,430.7,270.246Z" fill="#009e76"/>
        </g>
      </g>
    </g>
    <g id="Group_2203" data-name="Group 2203" transform="translate(-132 -32)">
      <path id="Path_931" data-name="Path 931" d="M454.2,122.44c-2.515,12.065-14.3,12.684-13.252,22.22S436.6,161.953,428.2,160.894s-14.526-2.311-17.5,7.511-14.577,15.58-19.958,8.473c-1.341-1.768-2.789-3.685-4.206-5.566l-1.153-1.53q-.133-.174-.264-.349a18.6,18.6,0,0,1,2-24.755c2.8-2.615,6.287-4.245,10.461-3.387,13.072,2.683,7.4-9.764,14.545-15.829,8.23-6.989,16.333-.539,21.884-6.37C441.74,110.982,456.714,110.374,454.2,122.44Z" fill="#009e76"/>
      <g id="Group_2202" data-name="Group 2202">
        <path id="Path_932" data-name="Path 932" d="M439.4,128.8l-52.864,42.508-1.153-1.53L438.2,127.313a.957.957,0,0,1,1.2,1.491Z" fill="#007665"/>
      </g>
    </g>
    <g id="Group_2205" data-name="Group 2205" transform="translate(-127 -35)">
      <path id="Path_933" data-name="Path 933" d="M440.754,67.172c2.3,15.315-11.321,21.187-5.923,31.965s2.423,22.274-7.938,24.691-18.126,3.613-17.341,16.483S399.172,165.03,389.73,159c-2.352-1.5-4.894-3.126-7.385-4.724l-2.025-1.3c-.156-.1-.311-.2-.464-.3a23.365,23.365,0,0,1-8.44-30.044c2.165-4.305,5.557-7.745,10.85-8.554,16.575-2.542,4.46-14.734,10.235-25,6.649-11.825,19.011-7.76,23.01-17.053C421.075,59.106,438.454,51.857,440.754,67.172Z" fill="#2bd184"/>
      <g id="Group_2204" data-name="Group 2204">
        <path id="Path_934" data-name="Path 934" d="M426.1,81.126l-43.752,73.152-2.025-1.3,43.711-73.086a1.2,1.2,0,1,1,2.066,1.234Z" fill="#009e76"/>
      </g>
    </g>
    <g id="Group_2208" data-name="Group 2208" transform="translate(16 -56)">
      <path id="Path_935" data-name="Path 935" d="M26.755,293.988c4.828,11.34,16.509,9.639,17.345,19.2s7.647,16.107,15.677,13.424,13.794-5.109,18.629,3.941,17.344,12.426,21.23,4.4c.969-2,2.014-4.16,3.035-6.282l.831-1.726c.064-.132.129-.263.191-.4a18.593,18.593,0,0,0-6.809-23.883c-3.263-2.016-7-2.933-10.922-1.274-12.294,5.189-9.167-8.127-17.362-12.676-9.439-5.242-16.122,2.669-22.708-1.963C36.73,280.314,21.927,282.648,26.755,293.988Z" fill="#009e76"/>
      <g id="Group_2207" data-name="Group 2207">
        <g id="Group_2206" data-name="Group 2206">
          <path id="Path_936" data-name="Path 936" d="M42.509,297.334l60.162,31.337.831-1.726L43.4,295.636a.958.958,0,0,0-.886,1.7Z" fill="#007665"/>
        </g>
      </g>
    </g>
    <g id="Group_2211" data-name="Group 2211" transform="translate(16 -56)">
      <path id="Path_937" data-name="Path 937" d="M37.734,241.067c-1.411,15.423,12.526,20.5,7.76,31.57s-1.132,22.376,9.351,24.19,18.305,2.561,18.265,15.454S84.9,336.359,93.979,329.8c2.261-1.632,4.705-3.4,7.1-5.143.653-.476,1.306-.949,1.947-1.415.149-.108.3-.215.446-.323a23.364,23.364,0,0,0,6.689-30.482c-2.41-4.173-5.994-7.411-11.326-7.913-16.693-1.58-5.3-14.452-11.662-24.365-7.321-11.422-19.427-6.649-23.956-15.7C56.914,231.877,39.145,225.645,37.734,241.067Z" fill="#2bd184"/>
      <g id="Group_2210" data-name="Group 2210">
        <g id="Group_2209" data-name="Group 2209">
          <path id="Path_938" data-name="Path 938" d="M53.173,254.151l47.905,70.5c.653-.476,1.306-.949,1.947-1.415L55.163,252.8a1.2,1.2,0,1,0-1.99,1.351Z" fill="#009e76"/>
        </g>
      </g>
    </g>
  </g>
  <g id="Group_2409" data-name="Group 2409" transform="translate(-69.516 -93.265)">
    <g id="Group_2323" data-name="Group 2323">
      <path id="Path_972" data-name="Path 972" d="M206.386,229.862l4.049,1.192,4.986,2.517-5.251-2.153Z" fill="#dba6a5"/>
      <path id="Path_973" data-name="Path 973" d="M237.412,233.775l4.825-4.743s23.723-6.772,38.629-10.117,16.8-.523,16.8-.523l6.73,11.887s-34.2,10.1-37.044,9.846-18.093,6.575-18.093,6.575Z" fill="#259aff"/>
      <path id="Path_974" data-name="Path 974" d="M281.1,393.055l2.268-75.714h2l2.509,75.714h19.215l5.28-102.634-56.5-7.739v25.887l5.42,84.487Z" fill="#00307c"/>
      <path id="Path_975" data-name="Path 975" d="M203.833,393.055h19.712l2.3-76.8h2l2.545,76.8h19.025l3.917-85.086-3.133-21.48-45.68-11.42-6.173,32.412.606,9.451Z" fill="#00307c"/>
      <path id="Path_976" data-name="Path 976" d="M314.286,304.375H253.411l3.263-86.434,27.175-4.192,29.35,4.192-5.634,20.149Z" fill="#137cbc"/>
      <path id="Path_980" data-name="Path 980" d="M277.333,214.654l-29.119,4.036-42.43,11.876,8.262,13.217L245.787,238s30.345,3.223,32.8,2.807l-2.654-2.348Z" fill="#137cbc"/>
      <g id="Group_2284" data-name="Group 2284">
        <path id="Path_984" data-name="Path 984" d="M226.045,216.363a6.285,6.285,0,0,0-6.538,6v26.489l-.044.022v-.1a6.526,6.526,0,0,0,6.526,6.526h0a6.525,6.525,0,0,0,6.525-6.526V228.881h.069V222.36A6.285,6.285,0,0,0,226.045,216.363Z" fill="#edb6b3"/>
        <g id="Group_2283" data-name="Group 2283">
          <g id="Group_2282" data-name="Group 2282" clip-path="url(#clip-path)">
            <g id="Group_2281" data-name="Group 2281" style="mix-blend-mode: multiply;isolation: isolate">
              <path id="Path_985" data-name="Path 985" d="M256.033,168.619H197.5s-2.562,33.967,1.393,42.959c2.151,4.888,9.326,9.865,16.124,14.035a22.921,22.921,0,0,0,23.849-.081c6.655-4.156,13.635-9.1,15.773-13.954C258.6,202.586,256.033,168.619,256.033,168.619Z" fill="#edb6b3"/>
            </g>
          </g>
        </g>
      </g>
      <path id="Path_986" data-name="Path 986" d="M249.952,185.229a11.745,11.745,0,0,0-11.747-11.39H214.057a11.961,11.961,0,0,0-11.965,11.6c-.264,9.2.915,21.247,2.766,25.834,1.72,4.261,6.345,8.6,11.779,12.234a17.024,17.024,0,0,0,19.057-.071c5.32-3.622,9.789-7.927,11.5-12.163C249.057,206.655,250.223,194.456,249.952,185.229Z" fill="#edb6b3"/>
      <path id="Path_987" data-name="Path 987" d="M247.469,165.35" fill="#3a2719"/>
      <g id="Group_2296" data-name="Group 2296">
        <path id="Path_994" data-name="Path 994" d="M207.487,208.073" fill="#3a2719"/>
        <g id="Group_2295" data-name="Group 2295">
          <path id="Path_995" data-name="Path 995" d="M207.487,208.129a.056.056,0,0,0,0-.112.056.056,0,0,0,0,.112Z" fill="#3a2719"/>
        </g>
      </g>
      <path id="Path_1000" data-name="Path 1000" d="M248.211,176.617c-3.336,2.825-7.569,4.33-11.743,5.631-7.824,2.439-16.068,4.379-24.165,3.115a24.966,24.966,0,0,1-12.325-5.357,17.69,17.69,0,0,1-6.332-11.66c.127,1.634,2.291,2.1,3.929,2.044,13.24-.443,26.427-5.485,39.452-3.073,4.659.863,8.49,3.139,10.442,7.455" fill="#003aa5" stroke="#003aa5" stroke-miterlimit="10" stroke-width="0.25"/>
      <path id="Path_1001" data-name="Path 1001" d="M205.882,181.691a.723.723,0,0,0-1.048-.426,5.021,5.021,0,0,0-2.071,3.086,37.47,37.47,0,0,1,.479-4.588c.473-1.657-2.242-2.358-2.55-.7a27.4,27.4,0,0,0,.748,13.506.9.9,0,0,0,1.764-.215C204.454,185.761,206.411,183.234,205.882,181.691Z" fill="#003aa5"/>
      <path id="Path_1002" data-name="Path 1002" d="M243.173,178.058c.661,5.184,6.329,8.826,6.494,14.05a32.323,32.323,0,0,0,2.073-8.478,10.908,10.908,0,0,0-2.532-8.129" fill="#003aa5" stroke="#003aa5" stroke-miterlimit="10" stroke-width="0.25"/>
      <path id="Path_1003" data-name="Path 1003" d="M239.153,159.339c-5.159-1.057-10.648-.325-15.728.816a105.807,105.807,0,0,0-10.548,3.114c-5.057,1.705-8.227.733-12.148-3.1a1.682,1.682,0,0,0-2.6.336,10.853,10.853,0,0,0-1.684,8.268c-1.7-1.255-3.422-2.49-5.125-3.746a1.294,1.294,0,0,0-1.9.771c-.883,5.563-1.444,11.481,2.314,16.158,3.433,4.271,9.174,6.028,14.391,6.819,14.761,2.237,28.523-4.272,41.658-10.1,1.131-.5.149-2.127-.967-1.654q-.648.276-1.3.548l2.724-1.913,0,.019c.056.884,1.32,1.383,1.784.483C253.914,168.622,246.041,160.75,239.153,159.339Z" fill="#003aa5"/>
      <g id="Group_2300" data-name="Group 2300">
        <path id="Path_1004" data-name="Path 1004" d="M217.959,234.741a15.255,15.255,0,0,0,17.026-.966s2.007,18.761-5.47,19.305S217.959,234.741,217.959,234.741Z" fill="#ededeb"/>
        <g id="Group_2299" data-name="Group 2299">
          <path id="Path_1005" data-name="Path 1005" d="M255.867,233.775l-13.63-4.743-9.654-1.2c-.033,2.663-.652,20.128-6.372,22.89-5.631-2.719-6.7-19.7-6.748-22.764l-18.774,3.1.09,9.374-3.619,18.956,2.616,39.736s12.989,2.724,24.777,3.827c18.679,1.747,26.952-3.827,26.952-3.827l3.584-39.2Z" fill="#259aff"/>
        </g>
      </g>
      <g id="Group_2301" data-name="Group 2301">
        <path id="Path_1006" data-name="Path 1006" d="M176.8,165.877s1.618-6.448.809-6.738-1.478-.4-1.962.724-2.3,5.073-2.3,5.073l-1.6-3.531s-1.809-8.513-2.173-9.513a1.141,1.141,0,0,0-2.2.26c-.06.691,1.027,9.916,1.027,9.916s-3.609-10.36-4.379-10.823-2.12-.032-1.853,1.658c.088.556,2.692,10.54,2.692,10.54s-3.2-6.175-4.1-6.971a1.116,1.116,0,0,0-1.907.736c-.119.805,3.855,9.636,3.855,9.636a25.712,25.712,0,0,0-3.008-2.886.965.965,0,0,0-1.47,1.071c.148.968,6.62,10.27,6.62,10.27l1.284,6.2,9.359-3.217a39.524,39.524,0,0,1-.8-4.8C174.894,173.069,176.8,165.877,176.8,165.877Z" fill="#edb6b3"/>
        <path id="Path_1007" data-name="Path 1007" d="M175.87,177.153l-.485-2.687-12.651,2.086.745,3.7Z" fill="#003aa5" stroke="#003aa5" stroke-miterlimit="10" stroke-width="0.25"/>
        <path id="Path_1008" data-name="Path 1008" d="M174.94,231.19c-6.56-16.019-12.216-51.589-12.216-51.589l13.712-3.4s9.084,31.181,13.917,41.076c2.327,4.763,8.632,12.808,12.537,15.387-2.639,10.886.9,19.021-5.041,28.179l.09-.957S180.715,245.291,174.94,231.19Z" fill="#259aff"/>
      </g>
      <path id="Path_1009" data-name="Path 1009" d="M276.436,212.321h14.825l-1.912,6.594H278.584Z" fill="url(#linear-gradient-2)"/>
      <g id="Group_2307" data-name="Group 2307">
        <path id="Path_1014" data-name="Path 1014" d="M283.871,203.312a6.285,6.285,0,0,0-6.538,6v7.567l-.045.023v-.1a6.526,6.526,0,0,0,6.526,6.525h0a6.526,6.526,0,0,0,6.526-6.525v-.967h.068v-6.52A6.285,6.285,0,0,0,283.871,203.312Z" fill="#edb6b3"/>
        <g id="Group_2306" data-name="Group 2306">
          <g id="Group_2305" data-name="Group 2305" clip-path="url(#clip-path-2)">
            <g id="Group_2304" data-name="Group 2304" style="mix-blend-mode: multiply;isolation: isolate">
              <path id="Path_1015" data-name="Path 1015" d="M313.859,155.567H255.328s-2.563,33.968,1.393,42.96c2.15,4.888,9.326,9.864,16.123,14.035a22.92,22.92,0,0,0,23.85-.082c6.655-4.155,13.634-9.094,15.772-13.953C316.421,189.535,313.859,155.567,313.859,155.567Z" fill="#edb6b3"/>
            </g>
          </g>
        </g>
      </g>
      <path id="Path_1016" data-name="Path 1016" d="M307.777,172.178a11.743,11.743,0,0,0-11.746-11.39H271.883a11.961,11.961,0,0,0-11.965,11.605c-.264,9.2.915,21.246,2.766,25.833,1.719,4.262,6.344,8.6,11.779,12.235a17.023,17.023,0,0,0,19.056-.071c5.321-3.622,9.789-7.928,11.5-12.164C306.883,193.6,308.048,181.4,307.777,172.178Z" fill="#edb6b3"/>
      <path id="Path_1017" data-name="Path 1017" d="M305.3,165.35" fill="#3a2719"/>
      <g id="Group_2319" data-name="Group 2319">
        <path id="Path_1024" data-name="Path 1024" d="M265.313,195.022" fill="#3a2719"/>
        <g id="Group_2318" data-name="Group 2318">
          <path id="Path_1025" data-name="Path 1025" d="M265.313,195.077a.056.056,0,0,0,0-.111.056.056,0,0,0,0,.111Z" fill="#3a2719"/>
        </g>
      </g>
      <path id="Path_1030" data-name="Path 1030" d="M309.954,163.838a20.846,20.846,0,0,0-3.278-8.731,19.062,19.062,0,0,0,2.149-3.856,17.43,17.43,0,0,0,.934-9.9,1.636,1.636,0,0,0-2.713-.716,20.179,20.179,0,0,1-6.4,4.063,13.9,13.9,0,0,0,2.05-5.953c.1-1.331-1.4-1.819-2.4-1.377-4.479,1.975-9.968,3.105-14.592,5.344.113-.239.216-.484.318-.731.374-.334,2.172-5.216.813-5.148-1.459.073-2.278,2.583-5.859,3.606-2.205.723-29.058,1.979-22.931,31.748a33.851,33.851,0,0,0,1.476,6.71c.02.26.035.522.059.781.133,1.481,2.449,1.51,2.337,0,.006-.1.008-.2.012-.3a.9.9,0,0,0,.017-.106c0-.07,0-.14,0-.21q.042-1.056.047-2.189a24.33,24.33,0,0,1,1.686-7.2,8.638,8.638,0,0,1,6.543-5.17c4.051-.585,8.966.805,13.312,1.419,5.8.819,14.533-4.068,19.324-.212,2.644,3.374,2.849,9.038,3.581,13.128.256,1.432,2.467,1.051,2.481-.336C308.968,173.393,310.733,169.043,309.954,163.838Z" fill="#003aa5"/>
      <g id="Group_2322" data-name="Group 2322">
        <path id="Path_1031" data-name="Path 1031" d="M276.436,212.321l-4.512,3.249,4.264,11.321,7.637-3.57Z" fill="#fdda42"/>
        <path id="Path_1032" data-name="Path 1032" d="M291.261,212.321l4.511,3.249-3.433,11.321-8.469-3.57Z" fill="#fdda42"/>
      </g>
      <path id="Path_1033" data-name="Path 1033" d="M232.583,227.834" fill="#137cbc"/>
      <path id="Path_1034" data-name="Path 1034" d="M300.918,303.633s-4.972,3.708-4.558,4.394.834,1.159,1.845.634,4.655-2.311,4.655-2.311l-.923,3.5s-3.713,7.223-4.04,8.161c-.315.9.878,2,1.743,1.108.452-.464,5.107-7.776,5.107-7.776s-3.5,9.62-3.218,10.409,1.514,1.274,2.318-.106c.264-.454,4.27-9.209,4.27-9.209s-1.33,6.351-1.145,7.461a1.041,1.041,0,0,0,1.813.592c.561-.512,2.9-9.242,2.9-9.242a24.032,24.032,0,0,0,.473,3.862.9.9,0,0,0,1.694.091c.465-.786,1.271-11.33,1.271-11.33l2.728-5.24-8.664-3.194a36.885,36.885,0,0,1-2.252,3.945C306.542,299.559,300.918,303.633,300.918,303.633Z" fill="#edb6b3"/>
      <path id="Path_1035" data-name="Path 1035" d="M305.548,293.558l5.112-24.944,1.325,11.824Z" fill="#137cbc" opacity="0.3" style="mix-blend-mode: multiply;isolation: isolate"/>
      <path id="Path_1036" data-name="Path 1036" d="M307.915,291.927l-1.623,5.264,11.526,5.619L320,299.275Z" fill="#fdda42"/>
      <path id="Path_1037" data-name="Path 1037" d="M313.2,218.392s19.27,29.8,20.511,36.9-13.475,46.2-13.475,46.2l-14.687-7.935,10.913-33.7-8.991-22.271Z" fill="#137cbc"/>
      <path id="Path_1038" data-name="Path 1038" d="M199.757,228.505" fill="#edb6b3"/>
    </g>
    <g id="Group_2359" data-name="Group 2359" transform="translate(22)">
      <path id="Path_1039" data-name="Path 1039" d="M175.677,363.333l-27-2.718v-.026l-.132.013-.132-.013v.026l-27,2.718-3.33,27.025.857.1h59.21l.857-.1Z" fill="#003aa5" stroke="#003aa5" stroke-miterlimit="10" stroke-width="0.25"/>
      <path id="Path_1040" data-name="Path 1040" d="M148.433,377.32c12.934-.36,30.456-3.588,30.456-3.588l-3.958-69.93c.288-3.066.341-4.642-2.864-5.677-4.414-1.426-22.279-9.582-22.279-9.582-.084-.009-.168-.007-.252-.013v-.023h-2.955v.023c-.081.006-.163,0-.244.013,0,0-17.256,8.156-21.519,9.582-3.1,1.035-2.988,2.611-2.709,5.677l-4.739,69.93s17.759,3.224,30.248,3.587Z" fill="#259aff"/>
      <g id="Group_2326" data-name="Group 2326">
        <path id="Path_1041" data-name="Path 1041" d="M108.334,323.253s-2.4,15.044-1.458,16.6,16.519,5.707,27.079,3.2,23.2-8.22,23.2-8.22l-26.141-6.9-11.252,1.035S111.8,326.733,108.334,323.253Z" fill="#edb6b3"/>
        <g id="Group_2325" data-name="Group 2325">
          <g id="Group_2324" data-name="Group 2324" clip-path="url(#clip-path-3)">
            <path id="Path_1042" data-name="Path 1042" d="M124.137,329.992s11.331,4.459,11.331,5.741.855,5.089-29.717,3.934c0,0,23.3,14.452,45.324,7.183s6.078-10.475,6.078-10.475Z" fill="#edb6b3" opacity="0.3" style="mix-blend-mode: multiply;isolation: isolate"/>
          </g>
        </g>
      </g>
      <g id="Group_2327" data-name="Group 2327">
        <path id="Path_1044" data-name="Path 1044" d="M104.31,325.112l13.682,4.076,5.686-1.643,2.764-2.61,17.427-6.73-.1-29.7s-23.951,5.751-30.954,13.871C108.667,307.184,104.31,325.112,104.31,325.112Z" fill="#259aff"/>
        <path id="Path_1045" data-name="Path 1045" d="M118.037,329.089s1.883-10.421,4.064-17.513l.8,18.416Z" fill="#259aff" opacity="0.5" style="mix-blend-mode: multiply;isolation: isolate"/>
      </g>
      <g id="Group_2328" data-name="Group 2328">
        <path id="Path_1046" data-name="Path 1046" d="M192.78,325.112,179.1,329.188l-5.686-1.643-2.764-2.61-17.324-6.73v-29.7s23.951,5.751,30.953,13.871C188.422,307.184,192.78,325.112,192.78,325.112Z" fill="#259aff"/>
        <path id="Path_1047" data-name="Path 1047" d="M179.053,329.089s-1.883-10.421-4.064-17.513l-.8,18.416Z" fill="#259aff" opacity="0.5" style="mix-blend-mode: multiply;isolation: isolate"/>
      </g>
      <g id="Group_2329" data-name="Group 2329">
        <path id="Path_1048" data-name="Path 1048" d="M168.1,322.754s1.957-4.092,2.543-4.978,2.727.473,1.9,2.269-1.2,2.455-1.2,2.455Z" fill="#e2abaa"/>
        <path id="Path_1049" data-name="Path 1049" d="M156.742,330.2s12.143-8.924,12.728-8.924,9.262-.2,9.832-.084c.513.107.636,1.064.5,1.543a.689.689,0,0,1-.63.5l-5.931.4v.122s5.42-.044,7.678.114a.9.9,0,0,1,.839.92h0a.91.91,0,0,1-.854.9l-6.828.533,8.126.475.726,2.33-19.9,3.072Z" fill="#edb6b3"/>
      </g>
      <g id="Group_2333" data-name="Group 2333">
        <g id="Group_2332" data-name="Group 2332">
          <path id="Path_1050" data-name="Path 1050" d="M188.3,326.184a94.226,94.226,0,0,1,1.314,10.425c0,2.986-5.454,6.27-8.05,6.446s-55.7-12.2-58.557-12.441a38.747,38.747,0,0,1-5.324-.839s2.6-4.946,7.4-6.522,10.257.92,13.5,1.685,20.644,3.148,29.733,3A185.521,185.521,0,0,0,188.3,326.184Z" fill="#edb6b3"/>
          <g id="Group_2331" data-name="Group 2331">
            <g id="Group_2330" data-name="Group 2330" clip-path="url(#clip-path-4)">
              <path id="Path_1051" data-name="Path 1051" d="M188,339.667s-14.742-1.368-33.5-4.646-36.825-5.246-36.825-5.246L181.932,345Z" fill="#edb6b3" opacity="0.25" style="mix-blend-mode: multiply;isolation: isolate"/>
            </g>
          </g>
        </g>
        <path id="Path_1053" data-name="Path 1053" d="M160.123,327.733s14.15,1.085,21.2,0" fill="none" stroke="#edb6b3" stroke-miterlimit="10" stroke-width="1" opacity="0.3" style="mix-blend-mode: multiply;isolation: isolate"/>
      </g>
      <g id="Group_2358" data-name="Group 2358">
        <path id="Path_1054" data-name="Path 1054" d="M158.062,230.469c2.105-1.712,5.259-1.049,7.69.155a17.85,17.85,0,0,1,9.088,9.779,21.166,21.166,0,0,1,1.022,5.775c.163,2.9-.224,6.231-2.579,7.931a1.587,1.587,0,0,1-1.005.373c-.682-.052-1.073-.786-1.3-1.432-.7-2.044-1-4.2-1.6-6.282-1.712-5.976-5.75-10.983-9.921-15.592" fill="#003aa5" stroke="#003aa5" stroke-miterlimit="10" stroke-width="0.25"/>
        <path id="Path_1055" data-name="Path 1055" d="M125.986,254.189c-4.254-6.075-3.914-14.768.2-20.942s11.518-9.784,18.931-10.026c3.974-.129,8.311.829,10.816,3.917.677.834,1.188,2.065.565,2.94a2.733,2.733,0,0,1-1.127.8c-4.075,1.91-8.611,2.531-13,3.515s-8.883,2.455-12.067,5.636a14.434,14.434,0,0,0-3.513,14.173" fill="#003aa5" stroke="#003aa5" stroke-miterlimit="10" stroke-width="0.25"/>
        <g id="Group_2339" data-name="Group 2339">
          <path id="Path_1060" data-name="Path 1060" d="M154.507,282.258a6.218,6.218,0,0,0-12.39,0l-.013,6.824a6.2,6.2,0,0,0,6.2,6.2h0a6.2,6.2,0,0,0,6.2-6.2Z" fill="#edb6b3"/>
          <g id="Group_2338" data-name="Group 2338">
            <g id="Group_2337" data-name="Group 2337" clip-path="url(#clip-path-5)">
              <g id="Group_2336" data-name="Group 2336" style="mix-blend-mode: multiply;isolation: isolate">
                <path id="Path_1061" data-name="Path 1061" d="M176.728,231.334H121.266s-2.428,32.187,1.32,40.707c2.038,4.632,8.837,9.347,15.278,13.3a21.72,21.72,0,0,0,22.6-.077c6.306-3.938,12.92-8.618,14.945-13.222C179.156,263.521,176.728,231.334,176.728,231.334Z" fill="#edb6b3"/>
              </g>
            </g>
          </g>
        </g>
        <path id="Path_1062" data-name="Path 1062" d="M171.532,247.074A11.128,11.128,0,0,0,160.4,236.281H137.519a11.335,11.335,0,0,0-11.338,11c-.25,8.718.868,20.133,2.622,24.479,1.629,4.038,6.011,8.148,11.161,11.593a16.131,16.131,0,0,0,18.057-.067c5.042-3.432,9.276-7.512,10.9-11.526C170.684,267.376,171.788,255.817,171.532,247.074Z" fill="#edb6b3"/>
        <g id="Group_2351" data-name="Group 2351">
          <path id="Path_1069" data-name="Path 1069" d="M131.294,267.009" fill="#3a2719"/>
          <g id="Group_2350" data-name="Group 2350">
            <path id="Path_1070" data-name="Path 1070" d="M131.294,267.062a.053.053,0,0,0,0-.106.053.053,0,0,0,0,.106Z" fill="#3a2719"/>
          </g>
        </g>
        <path id="Path_1073" data-name="Path 1073" d="M159.276,231.206c.308.485-.036,1.108-.372,1.574a47.117,47.117,0,0,1-6.379,7.66,15.826,15.826,0,0,1-8.832,4.29,1.406,1.406,0,0,1-1.061-.2,1.311,1.311,0,0,1-.34-1.03c.011-2.249,1.42-4.24,2.941-5.9a32.251,32.251,0,0,1,10.875-7.743" fill="#003aa5" stroke="#003aa5" stroke-miterlimit="10" stroke-width="0.25"/>
        <path id="Path_1074" data-name="Path 1074" d="M152.165,233.085a74.58,74.58,0,0,1-19.379,11.582c-1.21.492-2.681.926-3.74.161a2.584,2.584,0,0,1-.909-2.416,5.588,5.588,0,0,1,1.094-2.449,19.658,19.658,0,0,1,4.509-4.385,34.36,34.36,0,0,1,20.973-6.592" fill="#003aa5" stroke="#003aa5" stroke-miterlimit="10" stroke-width="0.25"/>
        <path id="Path_1075" data-name="Path 1075" d="M158.781,232.49a33.934,33.934,0,0,0,1.875,13.4c.957,2.7,2.524,5.525,5.244,6.43a1.528,1.528,0,0,0,1.03.06,1.423,1.423,0,0,0,.7-.778c.843-1.85-.043-3.992-.962-5.805a125.1,125.1,0,0,0-8.692-14.581" fill="#003aa5" stroke="#003aa5" stroke-miterlimit="10" stroke-width="0.25"/>
        <path id="Path_1076" data-name="Path 1076" d="M159.331,232.108l4.227,8.859c2.031,4.257,4.216,8.7,8.063,11.43a2.386,2.386,0,0,0,1.357.556,1.738,1.738,0,0,0,1.523-1.417,4.349,4.349,0,0,0-.228-2.206,25.687,25.687,0,0,0-6.451-10.279,68.544,68.544,0,0,0-9.506-7.707" fill="#003aa5" stroke="#003aa5" stroke-miterlimit="10" stroke-width="0.25"/>
        <path id="Path_1077" data-name="Path 1077" d="M159.879,228.75a10.6,10.6,0,0,0-3.292-8.616.632.632,0,0,0-.372-.207c-.245-.011-.414.247-.473.485a3.291,3.291,0,0,0,.581,2.265q1.524,2.811,3.047,5.622" fill="#003aa5" stroke="#003aa5" stroke-miterlimit="10" stroke-width="0.25"/>
        <path id="Path_1078" data-name="Path 1078" d="M153.922,229.078c-.175-3.383-3.519-5.744-6.779-6.668-8.54-2.422-17.866,1.565-24.16,7.826-1.763,1.754-3.456,4.02-3.1,6.48a17.653,17.653,0,0,0,8.686-4.705" fill="#003aa5" stroke="#003aa5" stroke-miterlimit="10" stroke-width="0.25"/>
        <path id="Path_1079" data-name="Path 1079" d="M121.286,232.334c2.146-5.868,8.092-9.527,14.074-11.329,4.355-1.311,9.146-1.859,13.394-.235s7.713,5.873,7.29,10.4" fill="#003aa5" stroke="#003aa5" stroke-miterlimit="10" stroke-width="0.25"/>
        <path id="Path_1080" data-name="Path 1080" d="M159.884,227.425l-.4.335c1.3-2.563,4.481-3.732,7.339-3.442.422.043.908.16,1.082.547.3.661-.562,1.225-1.253,1.447l-7.6,2.438" fill="#003aa5" stroke="#003aa5" stroke-miterlimit="10" stroke-width="0.25"/>
        <g id="Group_2357" data-name="Group 2357" transform="translate(0 -1)">
          <g id="Group_2356" data-name="Group 2356">
            <g id="Group_2354" data-name="Group 2354">
              <path id="Path_1081" data-name="Path 1081" d="M130.729,249.236h12.3a2.938,2.938,0,0,1,3.013,2.858v5.385a5.944,5.944,0,0,1-6.094,5.781h-6.02a6.062,6.062,0,0,1-6.215-5.9v-5.27A2.938,2.938,0,0,1,130.729,249.236Z" fill="none" stroke="#ededeb" stroke-miterlimit="10" stroke-width="1.2"/>
              <path id="Path_1082" data-name="Path 1082" d="M130.729,249.236h12.3a2.938,2.938,0,0,1,3.013,2.858v5.385a5.944,5.944,0,0,1-6.094,5.781h-6.02a6.062,6.062,0,0,1-6.215-5.9v-5.27A2.938,2.938,0,0,1,130.729,249.236Z" fill="#ededeb" opacity="0.4"/>
              <line id="Line_99" data-name="Line 99" x2="1.569" y2="0.733" transform="translate(126.147 253.474)" fill="none" stroke="#ededeb" stroke-linecap="round" stroke-linejoin="round" stroke-width="1.2"/>
            </g>
            <g id="Group_2355" data-name="Group 2355">
              <path id="Path_1083" data-name="Path 1083" d="M167.563,249.236h-12.3a2.938,2.938,0,0,0-3.013,2.858v5.385a5.944,5.944,0,0,0,6.094,5.781h6.02a6.062,6.062,0,0,0,6.215-5.9v-5.27A2.938,2.938,0,0,0,167.563,249.236Z" fill="none" stroke="#ededeb" stroke-miterlimit="10" stroke-width="1.2"/>
              <path id="Path_1084" data-name="Path 1084" d="M167.563,249.236h-12.3a2.938,2.938,0,0,0-3.013,2.858v5.385a5.944,5.944,0,0,0,6.094,5.781h6.02a6.062,6.062,0,0,0,6.215-5.9v-5.27A2.938,2.938,0,0,0,167.563,249.236Z" fill="#ededeb" opacity="0.4"/>
              <line id="Line_100" data-name="Line 100" x1="1.569" y2="0.733" transform="translate(170.576 253.474)" fill="none" stroke="#ededeb" stroke-linecap="round" stroke-linejoin="round" stroke-width="1.2"/>
            </g>
          </g>
          <line id="Line_101" data-name="Line 101" x2="5.229" transform="translate(146.468 254.696)" fill="none" stroke="#ededeb" stroke-linecap="round" stroke-linejoin="round" stroke-width="2"/>
        </g>
      </g>
    </g>
    <g id="Group_2382" data-name="Group 2382" transform="translate(22)">
      <g id="Group_2380" data-name="Group 2380">
        <path id="Path_1085" data-name="Path 1085" d="M273.617,290.094c-1.319-4.443-3.35-8.734-4.172-13.313-.8-4.483-.483-9.118-1-13.64-.69-6.077-2.019-12.917-6.688-17.312a14.187,14.187,0,0,0-7.383-3.4c-.919-.166-4.334-.836-3.849-.284-.724-.573-1.4-1.473-2.13-1.991a18.067,18.067,0,0,0-6.283-2.794c-11.776-2.777-25.352,4.075-28.785,16.88-2.4,8.973.632,18.183-1.94,27.3-2.012,7.13-4.277,34.951-.647,41.96.4.773,2.925,11.438,3.638,11.086,9.106-4.5,16.65,2.995,25.425,3.925,11.018,1.167,27.469-2.679,33.111-7.1C276.149,326.538,274.925,295.481,273.617,290.094Z" fill="#003aa5"/>
        <g id="Group_2365" data-name="Group 2365">
          <path id="Path_1092" data-name="Path 1092" d="M247.538,307.108l-1.721-1.225v-6.988a6.033,6.033,0,0,0-12.022,0v7.355l-1.7.858-.951,11.068h19.659Z" fill="#edb6b3"/>
          <g id="Group_2364" data-name="Group 2364">
            <g id="Group_2363" data-name="Group 2363" clip-path="url(#clip-path-6)">
              <g id="Group_2362" data-name="Group 2362" style="mix-blend-mode: multiply;isolation: isolate">
                <path id="Path_1093" data-name="Path 1093" d="M267.379,249.483H213.562s-2.355,31.231,1.281,39.5c1.978,4.494,8.575,9.07,14.825,12.9a21.072,21.072,0,0,0,21.929-.075c6.118-3.82,12.536-8.362,14.5-12.829C269.735,280.714,267.379,249.483,267.379,249.483Z" fill="#edb6b3"/>
              </g>
            </g>
          </g>
        </g>
        <path id="Path_1094" data-name="Path 1094" d="M262.337,264.756a10.8,10.8,0,0,0-10.8-10.473h-22.2a11,11,0,0,0-11,10.67c-.242,8.459.842,19.535,2.543,23.752,1.581,3.919,5.834,7.907,10.831,11.25a15.652,15.652,0,0,0,17.521-.066c4.892-3.33,9-7.289,10.572-11.184C261.514,284.455,262.586,273.239,262.337,264.756Z" fill="#edb6b3"/>
        <path id="Path_1095" data-name="Path 1095" d="M260.054,246.477" fill="#3a2719"/>
        <g id="Group_2377" data-name="Group 2377">
          <path id="Path_1102" data-name="Path 1102" d="M223.293,285.759" fill="#3a2719"/>
          <g id="Group_2376" data-name="Group 2376">
            <path id="Path_1103" data-name="Path 1103" d="M223.293,285.81a.051.051,0,0,0,0-.1.051.051,0,0,0,0,.1Z" fill="#3a2719"/>
          </g>
        </g>
        <path id="Path_1108" data-name="Path 1108" d="M245.817,250.115a21.249,21.249,0,0,0,16.63,17.642l1.185-7.532S256.912,249.987,245.817,250.115Z" fill="#003aa5" stroke="#003aa5" stroke-miterlimit="10" stroke-width="0.25"/>
        <path id="Path_1109" data-name="Path 1109" d="M248.576,246.477s4.16,10.267-6.93,16.669c-10.065,5.81-14.25-6.085-23.281,7.82a17.051,17.051,0,0,1,.612-16.683C221.763,249.408,240.545,241.987,248.576,246.477Z" fill="#003aa5" stroke="#003aa5" stroke-miterlimit="10" stroke-width="0.25"/>
      </g>
      <g id="Group_2381" data-name="Group 2381">
        <path id="Path_1110" data-name="Path 1110" d="M286.449,236.469s-1.485-5.929-.741-6.195,1.359-.365,1.8.666,2.114,4.665,2.114,4.665l1.475-3.246s1.666-7.826,2-8.746a1.049,1.049,0,0,1,2.021.24c.056.635-.947,9.117-.947,9.117s3.321-9.524,4.03-9.95,1.949-.029,1.7,1.525c-.081.511-2.478,9.69-2.478,9.69s2.941-5.676,3.774-6.408a1.026,1.026,0,0,1,1.753.677c.109.741-3.548,8.859-3.548,8.859a23.668,23.668,0,0,1,2.767-2.653.887.887,0,0,1,1.351.986c-.136.89-5.456,8.576-5.456,8.576l-1.817,6.564-8.6-2.961a36.382,36.382,0,0,0,.739-4.414C288.2,243.082,286.449,236.469,286.449,236.469Z" fill="#edb6b3"/>
        <path id="Path_1111" data-name="Path 1111" d="M286.234,246.4l.623-2.432,11.464,2.752-1.017,2.56Z" fill="#003aa5" stroke="#003aa5" stroke-miterlimit="10" stroke-width="0.25"/>
        <path id="Path_1112" data-name="Path 1112" d="M287.088,302.524c6.032-14.729,11.233-53.433,11.233-53.433l-12.608-3.123s-8.352,29.669-12.8,38.767c-2.139,4.38-10.6,17.3-14.194,19.673,2.426,10.009,7.169,19.489,12.634,27.909l-.082-.88S281.778,315.489,287.088,302.524Z" fill="#259aff"/>
      </g>
      <path id="Path_1113" data-name="Path 1113" d="M250.611,369.9l4.114-58.36c-16.4,9.472-27.329.258-27.329.258l4.657,58.1Z" fill="#ededeb"/>
      <path id="Path_1114" data-name="Path 1114" d="M229.867,371.951c-.123-3.023,6.108-8.277,6.085-11.591-.268-38.918-3.631-48.62-3.853-53.252l-12.484,3.882c-11.86,3.688-18.03,13.466-18.42,25.88L199.56,369.9Z" fill="#259aff"/>
      <path id="Path_1115" data-name="Path 1115" d="M271.357,332.317a108.992,108.992,0,0,1-7.526-13.512,11.455,11.455,0,0,0-1.268-2.878,75.9,75.9,0,0,1-3.84-11.519,2.5,2.5,0,0,1-.7.347c-5.4,1.407-10.506,2.353-10.506,2.353l.014.193c-.278,4.985-2.839,26.086-3.843,53.059-.123,3.312-.249,6.52-.373,9.543h31.582Z" fill="#259aff"/>
      <path id="Path_1116" data-name="Path 1116" d="M217.712,369.9l-3.331-35.322V369.9Z" fill="#259aff" opacity="0.4" style="mix-blend-mode: multiply;isolation: isolate"/>
      <path id="Rectangle_947" data-name="Rectangle 947" d="M4.928,0h89.9a4.928,4.928,0,0,1,4.928,4.928V58.143a0,0,0,0,1,0,0H0a0,0,0,0,1,0,0V4.928A4.928,4.928,0,0,1,4.928,0Z" transform="translate(188.444 332.32)" fill="#003aa5"/>
      <path id="Path_1117" data-name="Path 1117" d="M244.55,365.722a6.229,6.229,0,1,1-6.229-6.229A6.229,6.229,0,0,1,244.55,365.722Z" fill="url(#linear-gradient-3)"/>
    </g>
  </g>
  <g id="Group_2410" data-name="Group 2410" transform="translate(-69.516 -93.265)">
    <rect id="Rectangle_952" data-name="Rectangle 952" width="324.885" height="5.662" transform="translate(87.557 389.518)" fill="#323b6e"/>
    <rect id="Rectangle_953" data-name="Rectangle 953" width="324.885" height="5.662" transform="translate(87.557 389.518)" fill="#323b6e" opacity="0.5" style="mix-blend-mode: multiply;isolation: isolate"/>
  </g>
</svg>